<svg xmlns="http://www.w3.org/2000/svg" width="24" height="24" viewBox="0 0 24 24">
    <path fill="#47AED1" fill-rule="evenodd" d="M4.8 4C3.807 4 3 4.807 3 5.8v3.387c0 .278.066.556.19.805l1.455 2.913c.306.614.923.995 1.61.995h11.49a1.79 1.79 0 0 0 1.61-.995l1.455-2.913c.124-.249.19-.527.19-.805V5.8c0-.993-.807-1.8-1.8-1.8H4.8zm.555 6.3h13.29l-.9 1.8H6.255l-.9-1.8zM8.4 15.7a.9.9 0 1 0 0 1.8.9.9 0 0 0 0-1.8zm3.6 0a.9.9 0 1 0 0 1.8.9.9 0 0 0 0-1.8zm3.6 0a.9.9 0 1 0 0 1.8.9.9 0 0 0 0-1.8zm-9 2.7a.9.9 0 1 0 0 1.8.9.9 0 0 0 0-1.8zm5.4 0a.9.9 0 1 0 0 1.8.9.9 0 0 0 0-1.8zm5.4 0a.9.9 0 1 0 0 1.8.9.9 0 0 0 0-1.8z"/>
</svg>
