<svg xmlns="http://www.w3.org/2000/svg" width="24" height="24" viewBox="0 0 24 24">
    <g fill="none" fill-rule="evenodd">
        <path d="M0 0h24v24H0z"/>
        <path fill="#47AED1" d="M9.4 3c0 1.15-.197 1.153-.647 1.603C8.303 5.053 7.6 5.95 7.6 7.5h1.8c0-1.15.197-1.153.647-1.603C10.497 5.447 11.2 4.55 11.2 3H9.4zm3.319.9c0 2.159-1.519 2.159-1.519 3.6H13c0-1.35 1.519-1.17 1.519-3.6h-1.8zM4 8.4v10.8c0 .991.809 1.8 1.8 1.8h9c.991 0 1.8-.809 1.8-1.8v-3.6h.9c1.48 0 2.7-1.22 2.7-2.7v-1.8c0-1.48-1.22-2.7-2.7-2.7h-7.481c.808.991 1.529 2.71 1.8 4.331l1.35-.197.815 4.416-4.415.816-.788-4.416 1.8-.366C10.131 10.914 9.4 9.3 8.5 8.4H4zm12.6 1.8h.9c.5 0 .9.4.9.9v1.8c0 .5-.4.9-.9.9h-.9v-3.6z"/>
    </g>
</svg>
