<svg xmlns="http://www.w3.org/2000/svg" width="24" height="24" viewBox="0 0 24 24">
    <path fill="#47AED1" fill-rule="evenodd" d="M12.1 3.005c-2.075 0-4.15.79-5.727 2.368-3.156 3.156-3.156 8.298 0 11.454l1.273-1.273a6.286 6.286 0 0 1 0-8.908 6.286 6.286 0 0 1 8.908 0 6.286 6.286 0 0 1 0 8.908l1.273 1.273c3.156-3.156 3.156-8.298 0-11.454A8.075 8.075 0 0 0 12.1 3.005zm0 3.6a4.486 4.486 0 0 0-3.182 1.313 4.513 4.513 0 0 0 0 6.364l1.273-1.273a2.686 2.686 0 0 1 0-3.818 2.686 2.686 0 0 1 3.818 0 2.686 2.686 0 0 1 0 3.818l1.273 1.273a4.513 4.513 0 0 0 0-6.364A4.486 4.486 0 0 0 12.1 6.605zm0 3.595a.9.9 0 0 0-.9.9v8.1H6.7V21h10.8v-1.8H13v-8.1a.9.9 0 0 0-.9-.9z"/>
</svg>
