<svg xmlns="http://www.w3.org/2000/svg" width="24" height="24" viewBox="0 0 24 24">
    <path fill="#47AED1" fill-rule="evenodd" d="M20.25 3H3.75C3 3 3 3 3 3.75v16.5c0 .75 0 .75.75.75h16.5c.75 0 .75 0 .75-.75V3.75C21 3 21 3 20.25 3zM4.5 19.5v-15h15v15h-15zM9.375 8.055V6.36c0-.36 0-.36-.36-.36h-1.02c-.36 0-.36 0-.36.36v1.695C7.635 9.75 6 10.29 6 12.93v4.44c0 .63 0 .63.63.63h3.75c.615 0 .615 0 .615-.63v-4.44c0-2.64-1.62-3.18-1.62-4.875zM17.46 9h-4.905c-.24 0-.24 0-.315.21-.165.495-.24.945-.24 1.395 0 1.575.81 2.775 2.445 3.045v2.7c0 .93-1.59.645-1.59 1.29 0 .36 0 .36.36.36h3.57c.36 0 .36 0 .36-.36 0-.645-1.59-.315-1.59-1.29v-2.7C17.19 13.38 18 12.18 18 10.605c0-.435-.075-.9-.225-1.38C17.685 9 17.685 9 17.46 9z"/>
</svg>
