<svg xmlns="http://www.w3.org/2000/svg" width="24" height="24" viewBox="0 0 24 24">
    <path fill="#47AED1" fill-rule="evenodd" d="M9.877 9.393c1.559.357 3.255.543 4.967.543 1.712 0 3.423-.186 4.967-.543a.462.462 0 0 1 .535.543 37.553 37.553 0 0 0-.337 2.153 18.987 18.987 0 0 0-.137 2.324c0 .79.046 1.565.137 2.308.092.775.214 1.488.337 2.17a.445.445 0 0 1-.352.526.368.368 0 0 1-.183 0c-1.544-.356-3.255-.542-4.967-.542-1.712 0-3.408.186-4.967.542a.464.464 0 0 1-.535-.34.447.447 0 0 1 0-.202c.123-.682.245-1.395.337-2.154.091-.743.137-1.518.137-2.308 0-.806-.046-1.58-.137-2.324a38.153 38.153 0 0 0-.337-2.169.445.445 0 0 1 .352-.527.368.368 0 0 1 .183 0zm-6.403-3.61c1.59.078 3.3-.046 4.982-.34 1.681-.31 3.331-.775 4.799-1.41a.442.442 0 0 1 .58.248c.03.062.046.124.03.186 0 .697 0 1.425.047 2.184.046.744.107 1.519.244 2.309l.016.046a20.147 20.147 0 0 1-4.096-.496 1.247 1.247 0 0 0-.535-.015 1.37 1.37 0 0 0-1.085 1.596c.122.697.244 1.394.32 2.107.093.728.154 1.471.154 2.215v.046a21.64 21.64 0 0 0-3.745 1.193.442.442 0 0 1-.58-.248.417.417 0 0 1-.046-.185c.015-.698 0-1.426-.03-2.185a20.943 20.943 0 0 0-.26-2.308c-.138-.79-.321-1.534-.535-2.262-.23-.728-.474-1.41-.703-2.06a.454.454 0 0 1 .26-.59.758.758 0 0 1 .183-.03z"/>
</svg>
