<svg xmlns="http://www.w3.org/2000/svg" width="24" height="24" viewBox="0 0 24 24">
    <path fill="#47AED1" fill-rule="evenodd" d="M18.3 3c2.697 0 2.7-.008 2.7 2.7v12.6c0 2.722.032 2.7-2.7 2.7H5.7C3.036 21 3 20.929 3 18.3V5.7C3 3.024 3.072 3 5.7 3h12.6zm.9 15.3V5.7c0-.89-.044-.9-.9-.9H5.7c-.86 0-.9 0-.9.9v12.6c0 .873-.007.9.9.9h12.6c.855 0 .9.017.9-.9zm-12.6-.9V6.6h10.8v10.8H6.6zM12 9.3c-.99 0-1.8.81-1.8 1.8 0 .63.36 1.26.9 1.53v2.07c0 .54.36.9.9.9s.9-.36.9-.9v-2.07c.54-.27.9-.9.9-1.53 0-.99-.81-1.8-1.8-1.8z"/>
</svg>
