<svg xmlns="http://www.w3.org/2000/svg" width="24" height="24" viewBox="0 0 24 24">
    <path fill="#47AED1" fill-rule="evenodd" d="M4.636 5C3.072 5 3 4.954 3 6.636v9.819c0 1.588.032 1.636 1.636 1.636h4.091v1.636h6.546v-1.636h4.09c1.598 0 1.637-.031 1.637-.935V6.636C21 5.01 21.002 5 20.044 5H4.636zm0 1.636h14.728v9.819H4.636V6.636zm2.45 2.455L6.273 14h1.4l.334-2.002H9.83L9.5 14h1.386l.815-4.91h-1.402l-.267 1.701H8.205l.281-1.7h-1.4zm6.14 0l-.187 1.138h2.625c.48 0 .681.137.574.767l-.16 1.03c-.093.522-.333.836-.853.836h-1.212l.274-1.75h-1.4L12.427 14h2.838c1.453 0 2.027-.63 2.24-1.974l.173-1.03c.227-1.385-.333-1.905-1.787-1.905h-2.665z"/>
</svg>
