<svg xmlns="http://www.w3.org/2000/svg" width="24" height="24" viewBox="0 0 24 24">
    <path fill="#47AED1" fill-rule="evenodd" d="M21.737 9.066l-1.518 1.407c-2.388-2.118-5.126-3.274-8.335-3.268-3.209.006-5.972 1.125-8.416 3.27L2 9.115c4.506-4.875 13.851-5.84 19.737-.05zM6.403 13.319l-1.492-1.382c3.221-3.617 10.13-4.032 13.97-.023l-1.526 1.381c-1.569-1.387-3.38-2.131-5.447-2.131s-3.896.72-5.505 2.155zm8.276 2.722c-2.09-1.382-3.535-1.382-5.552.01l-1.522-1.404c2.51-2.344 6.093-2.344 8.564-.008l-1.49 1.402zm-2.846.477a1.69 1.69 0 0 1 1.745 1.664 1.707 1.707 0 0 1-1.682 1.735 1.745 1.745 0 0 1-1.755-1.672 1.717 1.717 0 0 1 1.692-1.727z"/>
</svg>
