<?xml version="1.0" encoding="utf-8"?>
<!-- Generator: Adobe Illustrator 23.0.2, SVG Export Plug-In . SVG Version: 6.00 Build 0)  -->
<svg version="1.1" baseProfile="tiny" id="Layer_1" xmlns="http://www.w3.org/2000/svg" xmlns:xlink="http://www.w3.org/1999/xlink"
	 x="0px" y="0px" viewBox="0 0 619 171" xml:space="preserve">
<path fill="#FDFEFF" d="M194.79,94.12c-4.27,0.35-14.41,1.96-18.33,2.41c-3.72,0.42-9.73,0.94-12.78,0.73
	c0.76-0.46,1.83-0.9,3.34-1.06c3.75-0.38,24.78-5.75,28.6-6.88c3.82-1.13,13.85-2.86,13.85-2.86l-1.11-0.42
	c-4.61-1.24-8.48-0.76-13.37,0.12c-6.83,1.24-13.82,4.48-18.77,5.79c-3.33,0.88-6.99,1.44-8.25,1.45c3.74-4.2,13.04-6.7,16.11-7.92
	c1.41-0.56,3.64-1.74,6.68-2.69c3.74-1.17,8.25-2.07,8.25-2.07c-4.47-1.98-16.74,0.59-24.81,5.04c-6.45,3.56-12.71,9.56-14.95,11.81
	c-1.71,0.83-4.18,2.04-6.76,3.31c0.04-0.11,0.08-0.23,0.12-0.35c1.38-4.51,4.47-4.27,8.8-9.18c5.11-5.81,22.59-14.69,22.59-14.69
	c-7.24,0.52-14.41,3.26-22.13,9.04c-9.96,7.47-13.64,17.14-13.64,17.14s0.05,0.04,0.14,0.09c-0.82,0.41-1.61,0.81-2.34,1.19
	c-0.91,0.46-2.08,1.1-3.45,1.86c0.27-0.74,0.77-2.01,1.72-4.07c1.79-3.91,9.45-12.64,13.18-16.33c3.73-3.69,11.19-10.89,11.19-10.89
	c-5.26,1.19-14.76,8.23-20.18,14.84c-5.42,6.61-11.11,19.34-11.11,19.34l0.7-0.28c-2.67,1.59-5.62,3.42-8.53,5.35l0.11-0.09
	c0,0-0.31-1.07,3.55-6.5c3.86-5.44,6.97-10.57,11.11-18.28c4.14-7.7,9.63-15.25,13.8-19.2c0,0-10.33,3.99-17.44,15.78
	c-7.11,11.79-10.03,21.27-11.79,25.5c-1.04,2.5-1.78,3.96-2.21,4.73c-1.05,0.73-2.08,1.46-3.07,2.18
	c0.39-2.31,3.11-17.51,8.01-26.29c5.03-9.01,15.71-22,15.71-22c-10.8,5.36-16.25,12.81-21.3,24.18
	c-4.92,11.08-4.48,24.94-4.46,25.64c-1.47,1.14-2.82,2.26-3.98,3.33c-0.04-2.44,0.34-11.48,1.46-18.18
	c1.26-7.56,6.36-16.18,10.06-23.79c3.28-6.75,5.87-11.07,5.87-11.07s-5.81,1.77-10.94,9.61c-5.12,7.84-8.26,15.87-9.3,25.33
	c-0.88,7.97-0.14,17.96,0.12,20.92c-0.74,0.84-1.44,1.7-2.1,2.57c-0.54-2.15-1.76-8.16-1.47-17.73
	c0.36-12.18,3.94-25.83,10.42-36.78c0,0-11.6,10.99-13.66,28.1c-1.72,14.31,1.51,26.02,2.61,29.47c-0.67,1.08-1.29,2.2-1.86,3.38
	c-0.01-0.29-0.11-0.59-0.34-0.86c-0.95-1.11-6.21-11.28-4.4-28.96c1.78-17.39,8.8-27.21,8.8-27.21
	c-13.66,7.97-15.7,31.18-13.43,42.69c2.14,10.88,7.99,15.51,8.58,16.06c-1.84,4.31-3.15,9.43-4.03,16.03
	c-1.57-0.63-3.03-1.38-4.24-2.25c-6.35-4.58-8.33-5.6-16.28-12.94c-4.66-4.31-6.22-5.38-8.87-8.8c1.94-0.69,3.94-0.91,9.06-1.18
	c4.88-0.26,12.67,0.58,15.06,0.86c-0.62-1.59-1.15-3.13-1.58-4.69c-2.1-0.07-8-0.21-13.47,0.39c-5.03,0.55-8.84,1.98-10.49,2.69
	c-0.04-0.05-0.07-0.09-0.1-0.15c-0.42-0.59-1.01-1.59-1.7-2.88c1.6-0.67,5.34-2.16,8.48-3.03c4.08-1.13,10.27-2.35,15.38-2.06
	c0.32,0.02,0.6,0,0.85-0.04c-0.21-1.51-0.35-3.1-0.43-4.82c-2.22-0.08-6.26-0.02-10.01,1.05c-2.88,0.82-7.06,2.17-10.5,3.78
	c-2.14,1-3.99,2.13-4.98,2.76c-0.63-1.27-1.31-2.7-2.01-4.23c1.25-1.1,4.26-3.44,9.27-5.48c6.35-2.58,12.95-3.38,18.22-3.42
	c0.05-1.47,0.13-3.04,0.24-4.72c0.04-0.6,0.1-1.18,0.16-1.75c-2.32,0.18-5.83,0.55-8.95,1.33c-5.22,1.3-8.59,2.95-13.27,5.78
	c-2.98,1.79-5.39,4.26-6.75,5.83c-0.53-1.22-1.07-2.48-1.59-3.75c1.7-1.6,6.12-5.53,10.55-7.71c5.64-2.77,12.24-4.97,17.03-5.36
	c1.41-0.11,2.6-0.16,3.59-0.17c0.39-1.99,0.89-3.81,1.45-5.48c-1.18-0.05-2.8-0.04-5.04,0.1c-7.75,0.48-14.88,4.09-18.94,7.24
	c-3.02,2.34-7.48,6.87-9.56,9.05c-0.56-1.43-1.09-2.85-1.57-4.25c0.01-0.01,7.74-8.97,13.42-11.48c5.68-2.51,9.27-4.55,16.07-5.33
	c2.34-0.27,5.35-0.11,7.52,0.07c1.04-2.13,2.13-3.86,3.11-5.21c-3.12-0.26-8.57-0.54-12.85,0.15c-5.94,0.96-12.2,3.13-17.49,6.92
	c-4.3,3.08-8.6,9.14-10.62,12.35c-0.36-1.12-0.67-2.21-0.94-3.23c0,0,5.11-7.38,10.23-12.5c5.12-5.12,7.34-7.64,14.17-10.25
	c6.83-2.61,10.6-1.91,15.12-1.71c4.52,0.2,8.54,0.52,12.15-0.69c0,0-6.66-2.15-10.59-2.89c-2.49-0.47-11.81-1.34-17.48,1.02
	c-5.32,2.22-10.88,5.23-24.3,23.87c-0.1-0.59-0.17-1.15-0.22-1.66c-0.04-0.52-0.09-1.07-0.14-1.64c1.33-2,5.13-7.63,8.09-11.08
	c3.65-4.25,8.51-9.8,14.67-13.1c6.16-3.3,13.54-4.35,22.13-4.05c8.59,0.31,10.5-0.47,10.5-0.47s-9.98-2.69-17.36-2.95
	c-7.38-0.26-16.06,1.3-23.78,8.51c-6.79,6.33-13.03,18.23-14.44,21.02c-0.18-1.99-0.39-4.21-0.6-6.57c0,0,4.75-8.61,10.99-14.57
	c6.24-5.96,13.32-11.52,22.12-11.75c10.06-0.26,14.47,1.06,23.43-1.48c0,0-4.81-1.55-11.92-1.8c-7.82-0.27-21.02-0.86-28.6,5.61
	c-6.91,5.9-12.8,13.6-16.44,19.23c-0.11-1.29-0.22-2.59-0.33-3.89c0,0,4.74-9.78,12.77-16.78S85.28,48.75,95,48.16
	c6.37-0.39,13.87-0.84,17.86-0.84c0,0-4.51-3.49-15.63-3.4c-11.11,0.09-17.65,2.52-23.63,7.38c-5.59,4.55-12.44,13.43-15.39,18.6
	c-0.05-0.68-0.1-1.36-0.14-2.03c0-0.01,3.59-6.58,7.03-11.47c3.44-4.89,9.37-10.93,15.2-14.08c5.83-3.15,12.6-4.14,17.18-5.39
	c4.58-1.25,8.23-4.69,8.23-4.69s0,0-10.52,0.73c-10.52,0.73-18.22,6.04-24.23,11.35c-5.59,4.94-12.28,16.73-13.18,18.34
	c-0.05-1.17-0.09-2.29-0.11-3.35c0.63-4.51,12.31-17.74,17.69-22.03C80.74,33,88.52,31.2,93.3,30.01c4.78-1.2,10.66-4.68,10.66-4.68
	c-4.29,0.3-8.47-0.4-17.44,1.99c-8.97,2.39-14.95,8.47-19.93,13.91S57.76,53.6,57.76,53.6c-0.03-0.97,0.1-2.86,0.14-3.44
	c1.69-2.44,7.23-10.25,12.21-15.11c5.96-5.81,17.04-14.76,25.9-18.54c0,0-10.42-0.53-23.84,11.78
	c-7.59,6.96-11.84,13.67-13.91,17.57c0.09-0.92,0.19-1.79,0.29-2.59c0.24-0.47,0.5-0.99,0.79-1.6c2.86-5.9,10.84-15.88,17.89-22.06
	c4.08-3.57,9.99-9.44,9.99-9.44c-8.29,2.62-12.82,6.39-18.77,12.45c-4.83,4.92-8.63,13.19-9.9,16.15c0.61-6.71,1.67-9.81,3.46-15.18
	c2.37-7.11,8.94-16.42,8.94-16.42c-3.49,2.84-11.52,9.68-13.53,18c-2.06,8.54-1.12,23.57-1.12,23.57c-2.24-3.94-2.27-8.27-2.09-13.2
	c0.2-5.25,0.06-16.09,2.85-22.36c0,0-6.14,7.4-7.1,13.74c-0.81,5.33-1.57,16.27,5.54,24.68c0,0-0.05,2.63,0.13,5.97
	c-3.47-2.79-4.79-5.88-7.08-10.46c-2.42-4.83-2.67-11.69-2.75-15.94c-0.08-4.25,0.74-9.76,0.74-9.76
	c-6.77,7.84-5.24,18.94-1.57,26.28c2.92,5.84,8.61,10.83,10.81,12.63c0.05,0.85,0.1,1.76,0.15,2.7c-1.99-1.5-6.4-5.01-10.53-9.64
	c-4.31-4.83-8.61-10.62-9-25.11c0,0-3.35,3.39-2.55,14.43c0.77,10.67,15.77,19.72,22.19,22.32c0.04,0.76,0.09,1.54,0.14,2.33
	c-2.47-0.95-8.58-3.73-13.82-7.2c-4.72-3.12-13.42-9.48-14.87-22.28c0,0-4.47,8.92,1.83,16.33c2.16,2.54,6.83,6.54,12.08,9.07
	c5.68,2.73,10.93,4.95,14.91,6.31c0.06,0.97,0.12,1.95,0.19,2.94c-1.27-0.65-9.31-4.73-13.85-6.34c-4.93-1.75-10.58-2.92-16.49-2.08
	c-5.91,0.84-12.53,3.18-17.21,8.05c0,0,6.36-2.99,12.01-4.22c5.65-1.23,14.41-0.19,18.63,0.71c4.22,0.91,9.87,2.79,12.47,4.03
	c2.59,1.23,4.61,2.47,4.61,2.47c0.09,1.37,0.19,2.76,0.29,4.14c-1.41-1.27-3.97-3.12-8.51-5.37c-8.99-4.45-23.71-2.48-29.19,1.2
	c-5.48,3.68-8.75,5.69-10.02,6.12c0,0,4.19,0.9,10.51-2.37c5.18-2.69,13.98-4,20.41-2.68c6.57,1.35,13.56,2.34,17.04,6.31
	c0.05,0.64,0.1,1.27,0.15,1.9c-1.31-0.66-3.14-1.4-3.83-1.7c-2.06-0.93-4.22-1.74-6.46-2.34c-2.23-0.61-4.6-0.98-6.87-1.08
	c-2.3-0.09-4.64,0.08-6.96,0.36c-2.32,0.27-4.65,0.76-6.88,1.59c-1.12,0.41-5.02,2.04-6,2.55c-1.93,1.04-4.01,2.62-6.06,3.45
	c-1.02,0.41-2.06,0.8-3.11,1.13l-3.42,0.7c1.21,0.48,2,0.72,3.62,0.68s2.34-0.34,3.43-0.64c2.18-0.59,4.33-1.32,6.44-2.15
	c1.05-0.42,2.1-0.89,3.13-1.36c0.96-0.42,1.94-0.77,2.94-1.04c2.02-0.54,4.12-0.81,6.25-0.83c2.13-0.04,4.27-0.03,6.41,0.19
	c2.18,0.22,4.25,0.39,6.38,0.7c2.13,0.29,4.33,0.56,6.53,0.94c0.52,0.14,2.94,0.52,4.6,0.79c0.12,1.41,0.25,2.78,0.38,4.1
	c-1.29-0.42-3.86-1.24-5.04-1.53c-2.38-0.6-4.78-1.06-7.23-1.39c-2.43-0.32-4.97-0.49-7.49-0.28c-2.53,0.21-5.02,0.73-7.46,1.36
	c-2.44,0.63-4.81,1.46-7.09,2.46c-2.28,1.02-4.46,2.22-6.53,3.56c-2.07,1.36-4.03,2.87-5.87,4.49c-1.84,1.62-3.22,3.84-4.73,5.77
	L6,105.94c4.22-2.88,8.22-6.39,12.44-8.54c2.1-1.09,4.37-2.05,6.59-2.82c2.21-0.77,4.48-1.39,6.78-1.78c2.29-0.39,4.6-0.92,6.9-0.91
	c2.32,0.02,4.62,0.06,7,0.13c2.37,0.06,4.77,0.14,7.19,0.14c1.92,0.02,3.5,0.5,5.31,0.61c0.1,0.78,0.21,1.54,0.32,2.28
	c-8.76-0.94-18.71-0.5-26.46,1.47c-8.16,2.07-13.48,6.68-18.6,10.67c-5.09,3.97-5.44,8.17-5.44,8.17c1.29-0.99,8.79-6.3,14.23-9.81
	c3.81-2.45,16.84-6.84,22.54-7.36c3.81-0.35,11.2-0.51,14.16-0.56c0.24,1.23,0.51,2.4,0.8,3.55c-3.55-0.3-11.81-0.79-17.87,0.5
	c-7.91,1.69-15.32,6.5-19.26,9.42c-3.94,2.92-9.75,8.74-11.9,9.92c0,0,4.37,0.03,7.26-1.92c2.89-1.95,6.87-4.5,10.79-6.6
	c3.92-2.1,9.17-5.07,13.02-6.15c3.85-1.08,8.27-2.35,12.02-2.63c2.88-0.21,5.33,0.1,6.72,0.31c0.38,1.27,0.8,2.5,1.23,3.69
	c-2.24-0.13-10.81-0.52-16.71,1.08c-6.08,1.64-16.75,7.53-22.33,14.54c-5.58,7.01-6.23,9.87-9.09,11.82c0,0,4.93-1.04,14.54-10.39
	c9.61-9.35,21.28-13.28,27.92-13.89c4.61-0.42,6.42,0.04,7.02,0.28c0.77,1.85,1.59,3.64,2.44,5.45c-2.25-0.15-8.21-0.45-12.62,0.1
	c-7.65,0.96-15.12,5.73-18.9,8.18c-5.53,3.59-13.75,13.68-17.98,16.46c0,0,4.15-0.14,8.8-3.09c4.66-2.95,9.56-6.81,12.79-9.76
	c3.23-2.95,11.21-6.79,17.18-8.26c4.09-1.01,10-1.05,11.97-1.03c0.47,0.98,0.94,1.96,1.42,2.96c-2.89-0.09-12.63,0.08-21.51,5.48
	c-10.57,6.43-17.61,20.11-19.48,23.42s-3.28,6.44-3.52,7.26c-0.29,0.96,6.09-4.47,9.54-9.79c4.14-6.38,10.59-14.28,16.67-17.89
	c6.55-3.89,13.68-5.89,19.37-5.27c0.27,0.03,0.5,0.04,0.69,0.03c0.39,0.67,0.83,1.39,1.32,2.16c-2,1.02-11.52,6.02-16.43,10.78
	c-4.84,4.69-11.3,13.16-15.71,17.14s-11.03,8.07-13.31,8.64c0,0,7.34,1.73,16.93-5.99c9.57-7.7,14.4-16.21,18.11-19.34
	c3.2-2.7,9.92-7.85,11.7-9.22c2.39,3.65,5.44,7.93,8.68,11.77c3.33,3.95,8.57,8.1,14.33,11.29c5.92,3.29,10.07,6.3,19.21,8.37
	c0.5,0.11,1.03-0.08,1.33-0.5l2.46-3.33c0.4-0.54,0.07-1.31-0.6-1.39c-2.19-0.25-6.43-0.85-10.59-2.07
	c-0.37-2.9-0.57-7.53,0.98-11.95c0.37-1.05,0.78-2.12,1.24-3.21c1.57,0.31,4.89,0.8,9.67,0.67c6.85-0.19,12.3,0.23,18.84,0.91
	c6.45,0.66,11.17,4.76,22.78,4.65c1.65-0.02,3.91-0.17,5.27-0.46c1.64-0.35,2.79-1.26,2.79-1.26s-7,0.32-14.93-2.75
	s-12.87-4.17-21.18-4.53c-9.44-0.42-17.66,1.85-22.33,0.71c0.46-0.98,0.95-1.97,1.48-2.95c0.68,0.02,1.71-0.02,3.27-0.2
	c3.75-0.44,8.35-0.97,15.32-1.08c7.11-0.11,12.19,0.22,19.01,2.3c6.82,2.07,22.87,2.89,27.32,0.75l0.95-0.43
	c0,0-6.03-0.34-8.99-1.58c-2.96-1.23-8.41-2.31-15.11-3.11c-6.7-0.8-6.9-0.87-12.47-0.82c-5.39,0.05-22.78,0.91-28.55,2.87
	c0.96-1.65,2.03-3.26,3.21-4.78c2.51-0.1,8.64-0.53,13.51-0.59c5.21-0.06,15.88,0.5,19.35,0.78c3.47,0.28,8.67,1,14.81,1.53
	c6.14,0.53,17.84-0.16,17.84-0.16s-1.45-0.52-5.83-1.74c-4.38-1.22-14.5-2.97-24.04-3.29c-9.54-0.32-19.56-0.26-24.9,0.54
	c-4.49,0.67-7.12,0.39-8.35,0.14c1.16-1.22,2.41-2.35,3.75-3.34c0.46-0.34,0.91-0.68,1.37-1.02c2.25,0.3,7.83,1,10.44,0.92
	c3.31-0.11,11.7-0.7,17.15-0.15c4.67,0.47,13.65,1.53,20.06,2.27c6.41,0.74,12.12,1.09,17.1,0.25c0,0-3.12-2.74-20.93-4.91
	c-17.81-2.17-24.55-0.33-26.57-0.31c-1.8,0.02-11.23,0.63-14.52-0.11c1.91-1.42,3.75-2.78,5.55-4.05c5.75,2.36,14.88-0.6,27.89,1.18
	c5.16,0.71,10.99,2.44,20.57,2.71c9.58,0.27,16.89-3.57,16.89-3.57s-2.11,0.05-4.03,0.19c-2.62,0.19-12.06,0.18-19.04-0.35
	c-6.98-0.53-11.55-2.66-20.83-2.58c-9.01,0.08-15.8,1.57-19.54,1.11c1.77-1.19,3.52-2.26,5.3-3.23c1.34-0.03,3.84-0.43,5.56-0.22
	c6,0.75,14.82,1,20.82,0.85c8.33-0.21,13.71,1.75,27.27,1.02c8.31-0.44,9.29-2.34,9.29-2.34l-16.56-0.09c0,0-8.45-0.76-17.69-1.38
	c-8.3-0.56-22.18,0.07-24.89,0.21c2.93-1.47,4.65-2.38,7.25-3.75c3.47,0,10.74,0.37,16.69,1.27c7.03,1.07,26.67,1.16,31.95,1.18
	c5.28,0.02,8.13-2.88,8.13-2.88s-1.47-0.05-4.41-0.29s-5.34-0.13-10.55-0.24c-5.21-0.11-14.47-0.41-21.3-0.52
	c-5.62-0.09-14.86,0.08-17.97,0.15c0.48-0.25,0.98-0.52,1.53-0.81c1.31-0.69,2.56-1.36,3.72-1.99c3.04,0.21,9.53,0.52,17.65,0.13
	c11.34-0.56,23.02-2.13,27.94-3.41c2.62-0.68,4.63-2.86,4.63-2.86s-1.37-0.12-4.1-0.11C200.94,93.62,197.05,93.94,194.79,94.12z
	 M57.67,59.3"/>
<g>
	<path fill="#FDFEFF" d="M269.16,92.29v-2.02c1.97-0.07,3.14-0.2,3.51-0.39c0.37-0.2,0.62-0.53,0.75-0.99
		c0.18-0.71,0.27-2.83,0.27-6.38V67.76c0-4.02-0.02-6.27-0.07-6.75h-3.52c-1.77,0-3.33,0.06-4.68,0.17
		c-0.54,0.05-0.85,0.12-0.94,0.2c-0.12,0.1-0.21,0.39-0.3,0.86c-0.21,1.15-0.34,2.44-0.37,3.87h-2.04
		c-0.07-3.37-0.11-5.26-0.12-5.69c-0.05-0.72-0.13-1.5-0.25-2.34l0.22-0.25c0.77,0.08,1.59,0.14,2.46,0.17
		c1.41,0.05,4.13,0.07,8.15,0.07h9.95c4.14,0,6.91-0.02,8.3-0.07c0.75-0.03,1.52-0.09,2.29-0.17l0.25,0.25
		c-0.15,1-0.24,1.88-0.27,2.64c-0.02,0.13-0.05,1.93-0.1,5.39h-2.04c-0.03-1.28-0.14-2.5-0.32-3.67c-0.1-0.59-0.21-0.94-0.32-1.06
		c-0.1-0.08-0.36-0.14-0.79-0.17c-1.35-0.13-2.96-0.2-4.85-0.2h-3.52c-0.05,0.58-0.07,2.82-0.07,6.75v14.75
		c0,3.55,0.09,5.68,0.27,6.4c0.12,0.43,0.36,0.74,0.74,0.95c0.38,0.21,1.55,0.34,3.52,0.41v2.02c-3.19-0.15-5.87-0.22-8.05-0.22
		C274.88,92.07,272.2,92.15,269.16,92.29z"/>
	<path fill="#FDFEFF" d="M295.69,92.29v-2.17c1.56-0.03,2.51-0.08,2.86-0.15c0.34-0.07,0.6-0.16,0.76-0.28
		c0.16-0.12,0.28-0.3,0.34-0.53c0.16-0.49,0.25-1.63,0.27-3.42l0.1-4.9V69.31l-0.1-4.85c-0.02-1.82-0.11-2.98-0.27-3.47
		c-0.07-0.23-0.18-0.41-0.33-0.53s-0.41-0.22-0.75-0.3c-0.34-0.07-1.31-0.13-2.88-0.16v-2.17c2.69,0.1,5.53,0.15,8.52,0.15
		c2.68,0,5.05-0.05,7.12-0.15V60c-1.76,0.07-2.79,0.14-3.1,0.21c-0.31,0.07-0.53,0.19-0.67,0.36s-0.23,0.74-0.29,1.72
		c-0.15,1.67-0.22,4.09-0.22,7.24v2.83c1.18,0.1,3.66,0.15,7.44,0.15c4.76,0,7.7-0.05,8.82-0.15v-2.83c0-2.54-0.02-4.18-0.05-4.9
		c-0.13-2.18-0.23-3.42-0.29-3.69c-0.05-0.2-0.13-0.35-0.23-0.46c-0.11-0.11-0.3-0.2-0.59-0.27c-0.29-0.07-1.32-0.14-3.09-0.21
		v-2.17c2.07,0.1,4.44,0.15,7.12,0.15c2.99,0,5.83-0.05,8.52-0.15V60c-1.56,0.03-2.51,0.08-2.86,0.15c-0.34,0.07-0.6,0.16-0.76,0.28
		c-0.16,0.12-0.28,0.3-0.34,0.53c-0.17,0.51-0.25,1.65-0.27,3.42l-0.1,4.93v11.53l0.1,4.83c0.02,1.84,0.1,3,0.25,3.47
		c0.08,0.23,0.2,0.41,0.36,0.54s0.41,0.23,0.75,0.3c0.34,0.07,1.3,0.12,2.88,0.15v2.17c-2.69-0.1-5.53-0.15-8.52-0.15
		c-2.68,0-5.05,0.05-7.12,0.15v-2.17c1.76-0.07,2.79-0.14,3.1-0.21s0.53-0.19,0.67-0.36s0.23-0.74,0.3-1.72
		c0.13-1.67,0.2-4.09,0.2-7.24v-5.15c-0.82-0.11-3.21-0.17-7.17-0.17c-3.79,0-6.32,0.02-7.59,0.05c-0.51,0.02-1.01,0.06-1.5,0.12
		v5.15c0,2.56,0.02,4.2,0.07,4.9c0.13,2.18,0.23,3.42,0.3,3.72c0.05,0.18,0.13,0.32,0.23,0.43c0.11,0.11,0.3,0.2,0.59,0.27
		c0.29,0.07,1.32,0.14,3.09,0.21v2.17c-2.07-0.1-4.44-0.15-7.12-0.15C301.22,92.15,298.38,92.2,295.69,92.29z"/>
	<path fill="#FDFEFF" d="M338.99,92.29v-1.33c0.99-0.46,1.79-0.94,2.41-1.43c0.1-0.69,0.18-1.81,0.25-3.35
		c0.13-2.82,0.2-4.88,0.2-6.16V68.94c0-0.43-0.02-2.03-0.07-4.8c-0.05-1.86-0.17-2.99-0.35-3.4c-0.08-0.16-0.21-0.29-0.37-0.37
		c-0.44-0.2-1.63-0.34-3.55-0.44v-2.09l5.71,0.12c1.13,0.02,2.22,0.02,3.25,0.02c2.25,0,4.75-0.02,7.51-0.07l5-0.12
		c0.59,0,1.79,0.03,3.6,0.1c0.16,0,0.43,0.05,0.81,0.15l0.17,0.32l-0.47,3.55c-0.02,0.25-0.1,1.43-0.25,3.55h-1.92
		c-0.03-1.94-0.11-3.13-0.22-3.57c-0.07-0.23-0.16-0.39-0.3-0.49c-0.21-0.15-0.87-0.28-1.97-0.39c-1.62-0.18-3.22-0.27-4.78-0.27
		c-1.46,0-2.96,0.06-4.48,0.17c-0.23,1.86-0.34,4.21-0.34,7.07v5.05c1.12,0.08,2.28,0.12,3.5,0.12c0.38,0,1.74-0.03,4.09-0.1
		c0.89-0.02,1.41-0.07,1.56-0.17c0.16-0.1,0.27-0.27,0.36-0.52c0.2-0.62,0.31-1.67,0.34-3.13h2l-0.1,5.42l0.1,5.39h-2.12
		c0.02-1.9-0.11-3.08-0.37-3.52c-0.2-0.33-0.55-0.53-1.06-0.62c-1.13-0.18-2.59-0.27-4.36-0.27c-1.59,0-2.91,0.05-3.94,0.15v10.44
		c0,1.17,0.02,2.17,0.07,3c1.33,0.1,2.91,0.15,4.73,0.15c1.77,0,3.41-0.06,4.91-0.17c1.5-0.11,2.43-0.28,2.77-0.49
		c0.11-0.07,0.22-0.21,0.32-0.44c0.3-0.79,0.61-2.28,0.94-4.48h2.02c-0.36,3.25-0.54,5.93-0.54,8.03l-0.32,0.32
		c-1.05,0.12-2.54,0.17-4.48,0.17l-3.97-0.07c-3.91-0.05-6.6-0.07-8.08-0.07C346.83,92.15,344.08,92.2,338.99,92.29z"/>
	<path fill="#FDFEFF" d="M380.6,92.29v-2.04c1.33-0.1,2.12-0.18,2.38-0.26c0.25-0.07,0.47-0.19,0.65-0.34
		c0.18-0.16,0.37-0.4,0.55-0.74c0.19-0.34,0.75-1.59,1.69-3.76c0.43-1.02,1.25-3.03,2.46-6.03l6.43-15.86l2.17-5.59h3.5l11.01,25.72
		l1.53,3.37l0.99,2.27c0.16,0.3,0.32,0.51,0.47,0.64c0.15,0.13,0.32,0.23,0.5,0.3c0.19,0.07,0.67,0.12,1.44,0.17
		c0.25,0.03,0.61,0.07,1.08,0.12v2.04l-6.85-0.15l-8.65,0.15v-2.04c1.99-0.08,3.11-0.19,3.36-0.33c0.25-0.14,0.38-0.37,0.38-0.7
		c0-0.41-0.19-1.08-0.57-2.02l-2.12-5.42h-12.66l-1.08,2.96c-0.82,2.27-1.23,3.68-1.23,4.24c0,0.39,0.13,0.67,0.39,0.84
		c0.39,0.23,1.57,0.38,3.52,0.44v2.04l-5.69-0.15L380.6,92.29z M391.48,78.97c1.54,0.05,3.29,0.07,5.25,0.07
		c1.89,0,3.58-0.02,5.07-0.07l-5.27-12.71L391.48,78.97z"/>
	<path fill="#FDFEFF" d="M419.98,59.88v-2.04l8.01,0.15l3.33-0.05l3.33-0.07l0.91-0.02v2.04c-1.77,0-2.9,0.16-3.37,0.47
		c-0.25,0.15-0.41,0.44-0.49,0.86c-0.23,1.02-0.34,3.26-0.34,6.72v5.71l0.02,2.88c0,3,0.03,4.86,0.1,5.57
		c0.15,1.54,0.53,2.79,1.16,3.73c0.62,0.94,1.58,1.71,2.87,2.29c1.29,0.58,2.93,0.87,4.91,0.87c2.28,0,4.1-0.39,5.46-1.17
		c1.35-0.78,2.32-1.79,2.89-3.04c0.57-1.25,0.86-3.62,0.86-7.12v-5.02c0-4.33-0.01-6.98-0.02-7.93c-0.05-2.07-0.16-3.32-0.34-3.74
		c-0.12-0.26-0.3-0.46-0.57-0.59c-0.54-0.28-1.72-0.44-3.55-0.49v-2.04c2.97,0.12,4.74,0.17,5.3,0.17c0.15,0,0.37-0.01,0.67-0.02
		l5.47-0.15v2.04c-1.53,0-2.49,0.12-2.88,0.37c-0.2,0.13-0.36,0.38-0.48,0.75c-0.12,0.37-0.24,2.03-0.36,4.99
		c-0.12,2.96-0.17,5.29-0.17,7v5.79c0,1.48-0.11,3.01-0.32,4.58c-0.21,1.58-0.64,2.92-1.29,4.04c-0.65,1.12-1.56,2.13-2.75,3.03
		c-1.18,0.9-2.59,1.58-4.21,2.04c-1.62,0.46-3.51,0.69-5.64,0.69c-2.5,0-4.83-0.34-7-1.01c-1.58-0.49-2.87-1.15-3.87-1.98
		c-1-0.83-1.77-1.76-2.29-2.78c-0.53-1.03-0.85-2.02-0.96-2.97c-0.08-0.59-0.12-2.18-0.12-4.78l0.02-4.73v-6.26
		c0-2.3-0.05-4.37-0.15-6.21c-0.05-0.72-0.15-1.25-0.29-1.58c-0.08-0.18-0.29-0.39-0.62-0.64L419.98,59.88z"/>
	<path fill="#FDFEFF" d="M459.61,92.29v-2.17c1.56-0.03,2.51-0.08,2.86-0.15c0.34-0.07,0.6-0.16,0.76-0.28
		c0.16-0.12,0.28-0.3,0.34-0.53c0.16-0.49,0.25-1.63,0.27-3.42l0.1-4.9V69.31l-0.1-4.85c-0.02-1.82-0.11-2.98-0.27-3.47
		c-0.07-0.23-0.18-0.41-0.33-0.53s-0.41-0.22-0.75-0.3c-0.34-0.07-1.31-0.13-2.88-0.16v-2.17c2.69,0.1,5.53,0.15,8.52,0.15
		c2.68,0,5.05-0.05,7.12-0.15V60c-1.76,0.07-2.79,0.14-3.1,0.21c-0.31,0.07-0.53,0.19-0.67,0.36s-0.23,0.74-0.29,1.72
		c-0.15,1.67-0.22,4.09-0.22,7.24v2.83c1.18,0.1,3.66,0.15,7.44,0.15c4.76,0,7.7-0.05,8.82-0.15v-2.83c0-2.54-0.02-4.18-0.05-4.9
		c-0.13-2.18-0.23-3.42-0.29-3.69c-0.05-0.2-0.13-0.35-0.23-0.46c-0.11-0.11-0.3-0.2-0.59-0.27c-0.29-0.07-1.32-0.14-3.09-0.21
		v-2.17c2.07,0.1,4.44,0.15,7.12,0.15c2.99,0,5.83-0.05,8.52-0.15V60c-1.56,0.03-2.51,0.08-2.86,0.15c-0.34,0.07-0.6,0.16-0.76,0.28
		c-0.16,0.12-0.28,0.3-0.34,0.53c-0.17,0.51-0.25,1.65-0.27,3.42l-0.1,4.93v11.53l0.1,4.83c0.02,1.84,0.1,3,0.25,3.47
		c0.08,0.23,0.2,0.41,0.36,0.54s0.41,0.23,0.75,0.3c0.34,0.07,1.3,0.12,2.88,0.15v2.17c-2.69-0.1-5.53-0.15-8.52-0.15
		c-2.68,0-5.05,0.05-7.12,0.15v-2.17c1.76-0.07,2.79-0.14,3.1-0.21s0.53-0.19,0.67-0.36s0.23-0.74,0.3-1.72
		c0.13-1.67,0.2-4.09,0.2-7.24v-5.15c-0.82-0.11-3.21-0.17-7.17-0.17c-3.79,0-6.32,0.02-7.59,0.05c-0.51,0.02-1.01,0.06-1.5,0.12
		v5.15c0,2.56,0.02,4.2,0.07,4.9c0.13,2.18,0.23,3.42,0.3,3.72c0.05,0.18,0.13,0.32,0.23,0.43c0.11,0.11,0.3,0.2,0.59,0.27
		c0.29,0.07,1.32,0.14,3.09,0.21v2.17c-2.07-0.1-4.44-0.15-7.12-0.15C465.15,92.15,462.31,92.2,459.61,92.29z"/>
	<path fill="#FDFEFF" d="M501.09,92.29v-2.04c1.33-0.1,2.12-0.18,2.38-0.26c0.25-0.07,0.47-0.19,0.65-0.34
		c0.18-0.16,0.37-0.4,0.55-0.74c0.19-0.34,0.75-1.59,1.69-3.76c0.43-1.02,1.25-3.03,2.46-6.03l6.43-15.86l2.17-5.59h3.5l11.01,25.72
		l1.53,3.37l0.99,2.27c0.16,0.3,0.32,0.51,0.47,0.64c0.15,0.13,0.32,0.23,0.5,0.3c0.19,0.07,0.67,0.12,1.44,0.17
		c0.25,0.03,0.61,0.07,1.08,0.12v2.04l-6.85-0.15l-8.65,0.15v-2.04c1.99-0.08,3.11-0.19,3.36-0.33c0.25-0.14,0.38-0.37,0.38-0.7
		c0-0.41-0.19-1.08-0.57-2.02l-2.12-5.42h-12.66l-1.08,2.96c-0.82,2.27-1.23,3.68-1.23,4.24c0,0.39,0.13,0.67,0.39,0.84
		c0.39,0.23,1.57,0.38,3.52,0.44v2.04l-5.69-0.15L501.09,92.29z M511.98,78.97c1.54,0.05,3.29,0.07,5.25,0.07
		c1.89,0,3.58-0.02,5.07-0.07l-5.27-12.71L511.98,78.97z"/>
	<path fill="#FDFEFF" d="M541.07,90.2c1.94-0.1,3.05-0.19,3.33-0.27c0.18-0.07,0.33-0.17,0.46-0.32c0.12-0.15,0.23-0.45,0.31-0.91
		c0.1-0.62,0.21-2.13,0.34-4.53c0.07-1.36,0.1-3.14,0.1-5.32v-7.91l-0.1-7.17c-0.02-1.2-0.07-1.98-0.15-2.34
		c-0.08-0.36-0.2-0.63-0.36-0.8c-0.16-0.17-0.42-0.31-0.78-0.41c-0.36-0.1-1.41-0.21-3.15-0.32v-2.07c2.08,0.1,3.62,0.15,4.61,0.15
		l3.57-0.07l2.27-0.07c3.38,4.42,7.48,9.51,12.29,15.27c3.46,4.15,6.34,7.41,8.62,9.75v-5.69c0-8.83-0.1-14.03-0.29-15.59
		c-0.07-0.61-0.21-1-0.44-1.18c-0.38-0.3-1.66-0.46-3.84-0.49v-2.07c2,0.1,3.84,0.15,5.52,0.15c1.62,0,3.72-0.05,6.28-0.15v2.07
		c-2,0.05-3.19,0.2-3.57,0.44c-0.13,0.08-0.22,0.21-0.27,0.37c-0.25,0.82-0.41,2.7-0.48,5.63s-0.11,5.1-0.11,6.49
		c0,10.92,0.11,17.55,0.32,19.88l-0.32,0.22c-1.38-0.23-2.78-0.44-4.21-0.64c-5.3-5.93-12.82-14.83-22.56-26.7v12.27
		c0,2.55,0.05,5.2,0.15,7.96c0.07,1.9,0.16,3.06,0.29,3.47c0.07,0.2,0.18,0.36,0.33,0.48c0.16,0.12,0.43,0.21,0.83,0.26
		c1.07,0.13,1.85,0.2,2.34,0.2c0.1,0,0.26-0.01,0.49-0.02v2c-3.12-0.03-4.89-0.05-5.32-0.05c-1.59,0-3.75,0.05-6.48,0.15V90.2z"/>
	<path fill="#FDFEFF" d="M582.35,92.29v-2.04c1.33-0.1,2.12-0.18,2.38-0.26c0.25-0.07,0.47-0.19,0.65-0.34
		c0.18-0.16,0.37-0.4,0.55-0.74c0.19-0.34,0.75-1.59,1.69-3.76c0.43-1.02,1.25-3.03,2.46-6.03l6.43-15.86l2.17-5.59h3.5l11.01,25.72
		l1.53,3.37l0.99,2.27c0.16,0.3,0.32,0.51,0.47,0.64c0.15,0.13,0.32,0.23,0.5,0.3c0.19,0.07,0.67,0.12,1.44,0.17
		c0.25,0.03,0.61,0.07,1.08,0.12v2.04l-6.85-0.15l-8.65,0.15v-2.04c1.99-0.08,3.11-0.19,3.36-0.33c0.25-0.14,0.38-0.37,0.38-0.7
		c0-0.41-0.19-1.08-0.57-2.02l-2.12-5.42h-12.66l-1.08,2.96c-0.82,2.27-1.23,3.68-1.23,4.24c0,0.39,0.13,0.67,0.39,0.84
		c0.39,0.23,1.57,0.38,3.52,0.44v2.04l-5.69-0.15L582.35,92.29z M593.24,78.97c1.54,0.05,3.29,0.07,5.25,0.07
		c1.89,0,3.58-0.02,5.07-0.07l-5.27-12.71L593.24,78.97z"/>
</g>
<g>
	<path fill="#FDFEFF" d="M265.23,124.85l0.06-0.8c0.93-0.18,1.46-0.31,1.58-0.39c0.08-0.06,0.14-0.15,0.2-0.29
		c0.12-0.26,0.38-1.51,0.78-3.74c0.4-2.23,0.83-4.71,1.28-7.43c0.3-1.79,0.45-2.91,0.45-3.37c0-0.18-0.03-0.32-0.1-0.4
		s-0.22-0.15-0.46-0.21c-0.18-0.03-0.54-0.06-1.08-0.09l-0.49-0.02h-0.19l0.08-0.84l3.97,0.06c0.15,0,1.02-0.02,2.61-0.06
		c0.73-0.02,1.39-0.03,1.99-0.03c1.24,0,2.22,0.12,2.93,0.35c0.72,0.23,1.29,0.62,1.71,1.17c0.43,0.55,0.64,1.22,0.64,2
		c0,0.6-0.14,1.19-0.41,1.75c-0.27,0.56-0.67,1.05-1.19,1.47s-1.09,0.75-1.71,0.98c-0.18,0.08-0.83,0.26-1.95,0.55
		c1.22,0.14,2.14,0.36,2.75,0.65s1.06,0.71,1.36,1.26c0.3,0.55,0.45,1.18,0.45,1.9c0,0.82-0.19,1.56-0.58,2.23
		c-0.38,0.67-0.87,1.23-1.46,1.68s-1.23,0.82-1.93,1.09c-1.01,0.39-2.1,0.58-3.27,0.58c-0.54,0-1.22-0.03-2.06-0.08
		c-1.11-0.06-2.01-0.09-2.73-0.09C267.84,124.73,266.76,124.77,265.23,124.85z M270.42,123.45c1.35,0.21,2.3,0.31,2.86,0.31
		c0.86,0,1.56-0.19,2.09-0.56c0.53-0.37,0.93-0.93,1.22-1.68c0.29-0.75,0.43-1.47,0.43-2.15c0-0.71-0.14-1.31-0.43-1.79
		c-0.28-0.48-0.68-0.82-1.19-1.02s-1.33-0.3-2.47-0.3c-0.23,0-0.68,0.01-1.36,0.03c-0.04,0.31-0.29,1.77-0.73,4.37
		C270.72,121.33,270.58,122.26,270.42,123.45z M271.78,115.19c0.32,0.02,0.64,0.02,0.96,0.02c0.78,0,1.39-0.04,1.83-0.12
		s0.86-0.22,1.24-0.41s0.71-0.46,1-0.8c0.28-0.33,0.52-0.77,0.7-1.31c0.18-0.54,0.27-1.06,0.27-1.56c0-0.49-0.11-0.93-0.33-1.33
		s-0.5-0.68-0.85-0.85c-0.5-0.25-1.25-0.38-2.25-0.38c-0.43,0-0.88,0.03-1.36,0.08l-0.06,0.36l-0.57,2.98
		C272.04,113.7,271.85,114.81,271.78,115.19z"/>
	<path fill="#FDFEFF" d="M283.39,121.28c0-1.04,0.17-2.12,0.52-3.24c0.35-1.12,0.72-1.93,1.12-2.42c0.25-0.31,0.7-0.72,1.34-1.23
		c0.64-0.51,1.34-0.93,2.11-1.26c0.77-0.33,1.58-0.5,2.44-0.5c0.72,0,1.38,0.11,1.97,0.33s1.04,0.5,1.34,0.85s0.52,0.76,0.67,1.25
		c0.14,0.49,0.21,1.02,0.21,1.6c0,1.1-0.18,2.19-0.55,3.29s-0.79,1.93-1.26,2.51c-0.34,0.4-0.88,0.85-1.61,1.34
		c-0.73,0.49-1.44,0.86-2.11,1.12c-0.67,0.26-1.43,0.38-2.28,0.38c-1,0-1.79-0.18-2.37-0.53s-0.99-0.84-1.21-1.45
		C283.5,122.69,283.39,122.02,283.39,121.28z M286.36,121.18c0,1.03,0.2,1.77,0.58,2.21c0.39,0.44,0.94,0.67,1.65,0.67
		c0.48,0,0.89-0.11,1.24-0.35s0.67-0.6,0.96-1.12s0.55-1.23,0.8-2.13c0.35-1.32,0.53-2.59,0.53-3.79c0-1.02-0.2-1.76-0.61-2.22
		s-0.94-0.68-1.59-0.68c-0.67,0-1.24,0.25-1.72,0.75c-0.48,0.5-0.9,1.45-1.27,2.85C286.54,118.76,286.36,120.03,286.36,121.18z"/>
	<path fill="#FDFEFF" d="M297.94,125.22l-0.26-0.33l0.58-2c0.33-1.26,0.58-2.35,0.77-3.26s0.33-1.83,0.45-2.76
		c0.05-0.46,0.08-0.84,0.08-1.14c0-0.24-0.03-0.4-0.08-0.48c-0.05-0.08-0.12-0.12-0.21-0.12c-0.27,0-0.9,0.39-1.88,1.16l-0.31-0.69
		c1.14-0.92,1.99-1.58,2.54-1.97c0.55-0.39,1.08-0.68,1.57-0.89c0.23-0.09,0.43-0.14,0.59-0.14c0.2,0,0.37,0.08,0.52,0.24
		c0.14,0.16,0.21,0.4,0.21,0.71c0,0.24-0.04,0.58-0.13,1c-0.04,0.23-0.35,1.56-0.92,3.98h0.18c0.62-1.47,1.25-2.68,1.88-3.63
		c0.64-0.96,1.2-1.59,1.7-1.91c0.33-0.2,0.7-0.3,1.11-0.3c0.24,0,0.5,0.04,0.77,0.13c-0.14,0.49-0.26,1.07-0.36,1.73
		c-0.1,0.66-0.16,1.23-0.18,1.73l-0.29,0.18c-0.41-0.35-0.85-0.53-1.32-0.53c-0.44,0-0.85,0.15-1.22,0.46
		c-0.51,0.42-1.03,1.25-1.57,2.5c-0.67,1.56-1.15,3.48-1.44,5.78l-1.93,0.3C298.51,125.04,298.24,125.12,297.94,125.22z"/>
	<path fill="#FDFEFF" d="M319.32,121.98l0.28,0.8c-2.07,1.69-3.55,2.54-4.43,2.54c-0.21,0-0.4-0.1-0.57-0.31
		c-0.17-0.21-0.25-0.5-0.25-0.87c0-0.31,0.05-0.72,0.15-1.23c0.13-0.68,0.43-1.98,0.92-3.89c-0.95,1.51-1.5,2.37-1.66,2.59
		c-0.7,0.92-1.35,1.65-1.97,2.2c-0.62,0.54-1.27,0.97-1.97,1.28c-0.34,0.16-0.64,0.24-0.9,0.24c-0.43,0-0.78-0.17-1.05-0.52
		s-0.42-0.93-0.42-1.76c0-1.16,0.22-2.49,0.67-3.96c0.44-1.48,0.84-2.45,1.18-2.91c0.25-0.33,0.84-0.84,1.77-1.54
		c0.92-0.7,1.64-1.19,2.14-1.45s1.1-0.4,1.8-0.4c0.39,0,0.84,0.06,1.34,0.18c0.5,0.12,0.95,0.28,1.35,0.49l1.16-0.68l0.41,0.3
		c-0.19,0.49-0.38,1.13-0.58,1.94c-0.57,2.38-1.03,4.42-1.37,6.12c-0.16,0.82-0.24,1.34-0.24,1.57c0,0.18,0.03,0.3,0.08,0.37
		c0.05,0.07,0.12,0.11,0.21,0.11c0.13,0,0.34-0.08,0.62-0.23C318.36,122.73,318.81,122.41,319.32,121.98z M315.99,114.72
		c-0.37-0.19-0.72-0.33-1.07-0.43c-0.34-0.09-0.67-0.14-0.99-0.14c-0.59,0-1.08,0.21-1.49,0.64c-0.41,0.43-0.86,1.55-1.36,3.37
		c-0.5,1.82-0.75,3.19-0.75,4.11c0,0.35,0.05,0.59,0.15,0.73s0.22,0.2,0.35,0.2c0.14,0,0.32-0.08,0.54-0.25
		c0.63-0.47,1.29-1.17,1.98-2.12c0.7-0.94,1.28-1.95,1.76-3.03S315.89,115.7,315.99,114.72z"/>
	<path fill="#FDFEFF" d="M330.94,121.74l0.29,0.8c-1.08,0.75-1.95,1.3-2.6,1.67s-1.28,0.64-1.87,0.82
		c-0.59,0.18-1.14,0.27-1.65,0.27c-0.66,0-1.26-0.14-1.78-0.42c-0.53-0.28-0.92-0.69-1.18-1.22c-0.26-0.54-0.39-1.15-0.39-1.83
		c0-1.07,0.16-2.17,0.48-3.29c0.32-1.12,0.68-1.95,1.08-2.47c0.4-0.53,0.98-1.02,1.72-1.48l2.16-1.31c0.67-0.33,1.39-0.5,2.16-0.5
		c0.43,0,0.85,0.05,1.26,0.14c0.41,0.1,0.91,0.27,1.48,0.51c-0.14,0.35-0.28,0.82-0.43,1.41c-0.2,0.8-0.35,1.53-0.45,2.19h-0.85
		c0.08-0.46,0.11-0.9,0.11-1.33c0-0.08,0-0.21-0.01-0.38c-0.37-0.31-0.75-0.54-1.16-0.7c-0.4-0.15-0.82-0.23-1.24-0.23
		c-0.49,0-0.9,0.1-1.23,0.3s-0.65,0.55-0.95,1.06c-0.21,0.37-0.41,0.9-0.59,1.61c-0.39,1.52-0.59,2.78-0.59,3.77
		c0,0.81,0.18,1.43,0.55,1.85s0.83,0.63,1.39,0.63c0.61,0,1.32-0.17,2.12-0.52C329.56,122.73,330.29,122.29,330.94,121.74z"/>
	<path fill="#FDFEFF" d="M345.05,121.98l0.28,0.8c-2.07,1.69-3.55,2.54-4.43,2.54c-0.21,0-0.4-0.1-0.57-0.31
		c-0.17-0.21-0.25-0.5-0.25-0.87c0-0.31,0.05-0.72,0.15-1.23c0.13-0.68,0.43-1.98,0.92-3.89c-0.95,1.51-1.5,2.37-1.66,2.59
		c-0.7,0.92-1.35,1.65-1.97,2.2c-0.62,0.54-1.27,0.97-1.97,1.28c-0.34,0.16-0.64,0.24-0.9,0.24c-0.43,0-0.78-0.17-1.05-0.52
		s-0.42-0.93-0.42-1.76c0-1.16,0.22-2.49,0.67-3.96c0.44-1.48,0.84-2.45,1.18-2.91c0.25-0.33,0.84-0.84,1.77-1.54
		c0.92-0.7,1.64-1.19,2.14-1.45s1.1-0.4,1.8-0.4c0.39,0,0.84,0.06,1.34,0.18c0.5,0.12,0.95,0.28,1.35,0.49l1.16-0.68l0.41,0.3
		c-0.19,0.49-0.38,1.13-0.58,1.94c-0.57,2.38-1.03,4.42-1.37,6.12c-0.16,0.82-0.24,1.34-0.24,1.57c0,0.18,0.03,0.3,0.08,0.37
		c0.05,0.07,0.12,0.11,0.21,0.11c0.13,0,0.34-0.08,0.62-0.23C344.09,122.73,344.54,122.41,345.05,121.98z M341.72,114.72
		c-0.37-0.19-0.72-0.33-1.07-0.43c-0.34-0.09-0.67-0.14-0.99-0.14c-0.59,0-1.08,0.21-1.49,0.64c-0.41,0.43-0.86,1.55-1.36,3.37
		c-0.5,1.82-0.75,3.19-0.75,4.11c0,0.35,0.05,0.59,0.15,0.73s0.22,0.2,0.35,0.2c0.14,0,0.32-0.08,0.54-0.25
		c0.63-0.47,1.29-1.17,1.98-2.12c0.7-0.94,1.28-1.95,1.76-3.03S341.62,115.7,341.72,114.72z"/>
	<path fill="#FDFEFF" d="M347.08,129.33l1.58-1l0.38,0.16c-0.02,0.18-0.02,0.32-0.02,0.44c0,0.46,0.14,0.86,0.43,1.2
		c0.28,0.34,0.7,0.51,1.24,0.51c0.33,0,0.65-0.08,0.97-0.24s0.64-0.44,0.97-0.85c0.33-0.41,0.66-1.05,0.99-1.93s0.71-2.12,1.13-3.73
		l0.83-3.3c-0.8,1.11-1.44,1.92-1.9,2.41c-0.84,0.89-1.59,1.51-2.26,1.87c-0.44,0.24-0.8,0.36-1.08,0.36
		c-0.32,0-0.61-0.18-0.87-0.55c-0.26-0.36-0.39-1.01-0.39-1.93v-0.43c0.01-0.08,0.02-0.18,0.03-0.29l0.29-2.8
		c0.11-0.92,0.18-1.56,0.2-1.92c0.04-0.7,0.06-1.08,0.06-1.14c0-0.44-0.02-0.72-0.05-0.85c-0.03-0.1-0.08-0.18-0.16-0.25
		c-0.08-0.06-0.17-0.09-0.26-0.09c-0.13,0-0.32,0.08-0.59,0.23c-0.47,0.26-0.94,0.58-1.42,0.97l-0.33-0.72l2.32-1.76
		c0.58-0.4,1.08-0.69,1.51-0.87c0.33-0.13,0.6-0.19,0.83-0.19c0.3,0,0.53,0.1,0.69,0.31c0.22,0.28,0.33,0.7,0.33,1.26
		c0,0.21-0.01,0.45-0.03,0.73l-0.57,5.09c-0.07,0.96-0.1,1.57-0.1,1.82c0,0.37,0.03,0.63,0.08,0.79c0.03,0.11,0.08,0.19,0.16,0.26
		c0.08,0.06,0.15,0.09,0.22,0.09c0.1,0,0.23-0.05,0.4-0.15c0.44-0.27,0.92-0.74,1.42-1.42c0.5-0.68,0.94-1.42,1.33-2.22
		c0.38-0.8,0.7-1.61,0.96-2.43c0.38-1.23,0.65-2.38,0.79-3.45c1.25-0.26,2.21-0.46,2.88-0.62l0.29,0.23
		c-0.39,0.99-0.98,2.97-1.76,5.94c-0.65,2.5-1.16,4.27-1.52,5.31c-0.59,1.66-1.3,3.07-2.13,4.24c-0.83,1.17-1.8,2.07-2.9,2.71
		c-0.79,0.45-1.57,0.68-2.35,0.68c-0.85,0-1.5-0.2-1.95-0.61s-0.68-0.94-0.68-1.6V129.33z"/>
	<path fill="#FDFEFF" d="M359.09,129.13l-0.46-0.38c0.6-0.85,1.16-1.96,1.68-3.32c0.51-1.36,0.81-2.49,0.87-3.4
		c1.15-0.21,2.23-0.5,3.24-0.88l0.41,0.38l-1.16,2.2c-0.39,0.69-0.85,1.41-1.38,2.18c-0.54,0.77-1.16,1.55-1.86,2.34L359.09,129.13z
		"/>
	<path fill="#FDFEFF" d="M372.98,124.85l0.09-0.85c1.05,0,1.69-0.05,1.93-0.15c0.1-0.04,0.18-0.1,0.24-0.19
		c0.12-0.18,0.31-0.89,0.54-2.11c0.59-3.07,1.09-5.81,1.5-8.22c0.41-2.41,0.61-3.85,0.61-4.34c0-0.19-0.04-0.34-0.13-0.45
		s-0.23-0.18-0.43-0.23c-0.26-0.06-0.91-0.09-1.96-0.1l0.13-0.93c1.67,0.09,3.05,0.14,4.16,0.14c0.55,0,1.4-0.02,2.53-0.05
		c1.13-0.03,2.05-0.05,2.76-0.05c1.3,0,2.29,0.17,2.98,0.51c0.69,0.34,1.21,0.83,1.55,1.48c0.34,0.65,0.51,1.39,0.51,2.22
		c0,0.9-0.18,1.72-0.53,2.44c-0.35,0.72-0.8,1.34-1.34,1.85c-0.54,0.51-1.12,0.9-1.74,1.19c-0.88,0.4-1.8,0.6-2.76,0.6
		c-0.8,0-1.65-0.15-2.55-0.46l-0.13-0.92c0.79,0.24,1.45,0.36,2,0.36c0.57,0,1.14-0.18,1.71-0.55s1.03-0.96,1.39-1.78
		c0.36-0.82,0.53-1.67,0.53-2.56c0-0.67-0.11-1.25-0.33-1.75c-0.22-0.49-0.59-0.87-1.11-1.13c-0.51-0.26-1.13-0.39-1.84-0.39
		c-0.37,0-1,0.07-1.88,0.2c-0.31,1.55-0.77,4.05-1.38,7.51c-0.61,3.46-0.97,5.62-1.08,6.48c-0.03,0.23-0.04,0.42-0.04,0.59
		c0,0.21,0.05,0.36,0.14,0.46c0.1,0.1,0.34,0.17,0.72,0.22c0.2,0.03,0.79,0.07,1.76,0.1l-0.13,0.87l-4.28-0.1
		C376.66,124.75,375.28,124.78,372.98,124.85z"/>
	<path fill="#FDFEFF" d="M390.54,125.19l-0.25-0.24c0.43-1.46,0.78-2.82,1.05-4.1c0.18-0.8,0.57-2.79,1.18-5.95
		c0.46-2.36,0.77-4.14,0.93-5.34c0.06-0.46,0.09-0.75,0.09-0.88c0-0.22-0.11-0.36-0.33-0.44c-0.13-0.04-0.72-0.07-1.77-0.09
		l0.14-0.77c0.79-0.06,1.66-0.19,2.59-0.41c0.93-0.21,1.78-0.46,2.53-0.73l0.26,0.21c-0.12,0.49-0.31,1.26-0.55,2.31
		c-0.43,1.87-0.72,3.19-0.89,3.98l-1.21,5.65c0.58-0.88,1.1-1.58,1.56-2.11c0.69-0.79,1.33-1.42,1.93-1.9
		c0.44-0.36,0.93-0.69,1.45-0.99c0.52-0.3,0.97-0.51,1.35-0.63c0.28-0.08,0.56-0.13,0.85-0.13c0.35,0,0.61,0.09,0.79,0.26
		c0.17,0.18,0.26,0.45,0.26,0.83c0,0.31-0.02,0.61-0.08,0.9c-0.16,0.81-0.44,1.89-0.83,3.23c-0.75,2.55-1.12,4.11-1.12,4.7
		c0,0.21,0.03,0.35,0.09,0.43c0.06,0.08,0.15,0.12,0.26,0.12c0.13,0,0.27-0.04,0.43-0.11c0.23-0.12,0.73-0.45,1.5-0.99l0.29,0.68
		c-1.46,1.08-2.51,1.78-3.15,2.1c-0.65,0.32-1.15,0.48-1.52,0.48c-0.25,0-0.46-0.1-0.63-0.31c-0.17-0.21-0.26-0.54-0.26-0.98
		c0-0.28,0.03-0.62,0.1-0.99c0.05-0.28,0.26-1.12,0.64-2.52c0.77-2.91,1.16-4.56,1.16-4.92c0-0.17-0.04-0.3-0.12-0.39
		c-0.08-0.09-0.19-0.14-0.33-0.14c-0.23,0-0.51,0.1-0.85,0.29c-0.58,0.33-1.19,0.88-1.84,1.66c-0.65,0.78-1.23,1.72-1.73,2.81
		c-0.37,0.79-0.72,1.88-1.06,3.27c-0.17,0.66-0.25,1.21-0.26,1.65c-0.26,0.01-0.59,0.05-1,0.13
		C391.39,124.98,390.84,125.1,390.54,125.19z"/>
	<path fill="#FDFEFF" d="M405.24,116.43l-0.31-0.67l1.72-1.27c0.88-0.62,1.47-1.01,1.77-1.18c0.49-0.27,0.92-0.46,1.29-0.58
		c0.23-0.07,0.44-0.1,0.62-0.1c0.2,0,0.38,0.08,0.53,0.25c0.16,0.17,0.23,0.4,0.23,0.69c0,0.32-0.03,0.65-0.1,0.99
		c-0.11,0.54-0.41,1.7-0.9,3.5c-0.49,1.8-0.8,2.98-0.92,3.54s-0.18,0.92-0.18,1.1c0,0.13,0.04,0.24,0.11,0.31
		c0.07,0.08,0.15,0.11,0.23,0.11c0.1,0,0.26-0.06,0.48-0.18c0.49-0.26,1.05-0.6,1.66-1.02l0.34,0.67c-0.66,0.47-1.41,0.97-2.25,1.51
		c-0.84,0.54-1.45,0.88-1.85,1.02c-0.25,0.09-0.49,0.14-0.73,0.14c-0.29,0-0.52-0.11-0.7-0.32c-0.18-0.21-0.28-0.54-0.28-0.99
		c0-0.35,0.04-0.72,0.11-1.09c0.09-0.5,0.31-1.4,0.65-2.69c0.7-2.66,1.06-4.23,1.06-4.7c0-0.11-0.03-0.19-0.08-0.25
		c-0.05-0.06-0.12-0.09-0.21-0.09C407.2,115.16,406.44,115.58,405.24,116.43z M409.12,108.84c0-0.55,0.17-1,0.51-1.35
		c0.34-0.35,0.75-0.52,1.25-0.52c0.42,0,0.75,0.13,1.01,0.38c0.26,0.26,0.38,0.59,0.38,1.01c0,0.59-0.16,1.07-0.49,1.44
		c-0.33,0.36-0.74,0.55-1.24,0.55c-0.44,0-0.79-0.13-1.04-0.39C409.25,109.7,409.12,109.33,409.12,108.84z"/>
	<path fill="#FDFEFF" d="M419.94,121.92l0.38,0.68l-2.37,1.61c-0.67,0.44-1.21,0.74-1.63,0.9c-0.3,0.12-0.58,0.18-0.83,0.18
		c-0.29,0-0.52-0.1-0.67-0.29c-0.22-0.27-0.33-0.64-0.33-1.12c0-0.42,0.06-0.98,0.19-1.67c0.19-1.07,0.32-1.75,0.38-2.02l1.93-8.66
		l0.29-1.46c0.08-0.39,0.13-0.69,0.15-0.9c0.02-0.13,0.03-0.25,0.03-0.35c0-0.18-0.04-0.32-0.11-0.41
		c-0.07-0.09-0.19-0.16-0.35-0.19c-0.16-0.03-0.73-0.05-1.69-0.06l0.13-0.74c1.83-0.22,3.57-0.61,5.21-1.18l0.31,0.28l-1.36,5.8
		l-1.54,7.17c-0.32,1.37-0.5,2.27-0.54,2.69c-0.02,0.15-0.03,0.28-0.03,0.4c0,0.18,0.03,0.31,0.1,0.39
		c0.07,0.08,0.15,0.13,0.24,0.13c0.13,0,0.34-0.07,0.62-0.21C418.9,122.65,419.4,122.33,419.94,121.92z"/>
	<path fill="#FDFEFF" d="M422.37,116.43l-0.31-0.67l1.72-1.27c0.88-0.62,1.47-1.01,1.77-1.18c0.49-0.27,0.92-0.46,1.29-0.58
		c0.23-0.07,0.44-0.1,0.62-0.1c0.2,0,0.38,0.08,0.53,0.25c0.16,0.17,0.23,0.4,0.23,0.69c0,0.32-0.03,0.65-0.1,0.99
		c-0.11,0.54-0.41,1.7-0.9,3.5c-0.49,1.8-0.8,2.98-0.92,3.54s-0.18,0.92-0.18,1.1c0,0.13,0.04,0.24,0.11,0.31
		c0.07,0.08,0.15,0.11,0.23,0.11c0.1,0,0.26-0.06,0.48-0.18c0.49-0.26,1.05-0.6,1.66-1.02l0.34,0.67c-0.66,0.47-1.41,0.97-2.25,1.51
		c-0.84,0.54-1.45,0.88-1.85,1.02c-0.25,0.09-0.49,0.14-0.73,0.14c-0.29,0-0.52-0.11-0.7-0.32c-0.18-0.21-0.28-0.54-0.28-0.99
		c0-0.35,0.04-0.72,0.11-1.09c0.09-0.5,0.31-1.4,0.65-2.69c0.7-2.66,1.06-4.23,1.06-4.7c0-0.11-0.03-0.19-0.08-0.25
		c-0.05-0.06-0.12-0.09-0.21-0.09C424.34,115.16,423.57,115.58,422.37,116.43z M426.26,108.84c0-0.55,0.17-1,0.51-1.35
		c0.34-0.35,0.75-0.52,1.25-0.52c0.42,0,0.75,0.13,1.01,0.38c0.26,0.26,0.38,0.59,0.38,1.01c0,0.59-0.16,1.07-0.49,1.44
		c-0.33,0.36-0.74,0.55-1.24,0.55c-0.44,0-0.79-0.13-1.04-0.39C426.38,109.7,426.26,109.33,426.26,108.84z"/>
	<path fill="#FDFEFF" d="M429.8,131.82l-0.26-0.19c0.75-2.79,1.24-4.66,1.47-5.62c0.49-2.04,0.98-4.28,1.5-6.71
		c0.28-1.36,0.46-2.35,0.54-2.96c0.03-0.24,0.04-0.45,0.04-0.62c0-0.26-0.03-0.42-0.08-0.49c-0.05-0.07-0.12-0.1-0.23-0.1
		c-0.15,0-0.36,0.06-0.62,0.19c-0.44,0.23-0.89,0.52-1.37,0.87l-0.34-0.64c0.99-0.78,1.74-1.34,2.25-1.68
		c0.79-0.54,1.43-0.9,1.91-1.09c0.31-0.13,0.57-0.19,0.77-0.19c0.24,0,0.43,0.07,0.56,0.21s0.2,0.35,0.2,0.63
		c0,0.22-0.04,0.54-0.13,0.95c-0.1,0.54-0.39,1.75-0.87,3.63c0.8-1.23,1.48-2.14,2.02-2.73c0.42-0.44,0.96-0.9,1.61-1.38
		c0.65-0.47,1.22-0.8,1.7-0.99s0.94-0.28,1.38-0.28c0.27,0,0.49,0.07,0.67,0.21c0.18,0.14,0.35,0.43,0.5,0.87
		c0.21,0.59,0.31,1.25,0.31,1.96c0,1.05-0.22,2.21-0.65,3.5s-0.86,2.19-1.27,2.71c-0.41,0.52-1.04,1.07-1.9,1.65
		c-0.85,0.58-1.57,1-2.14,1.26c-0.57,0.26-1.24,0.39-2.01,0.39c-0.49,0-0.98-0.05-1.46-0.16c-0.51,2.04-0.88,3.7-1.12,4.96
		c-0.06,0.32-0.1,0.75-0.13,1.31c-0.31,0.03-0.68,0.09-1.12,0.16C430.61,131.62,430.02,131.74,429.8,131.82z M434.22,123.24
		c0.83,0.44,1.64,0.67,2.42,0.67c0.47,0,0.88-0.13,1.22-0.38c0.35-0.25,0.68-0.71,1.01-1.38c0.33-0.67,0.68-1.7,1.05-3.1
		c0.29-1.07,0.43-2.04,0.43-2.91c0-0.62-0.07-1.03-0.2-1.23c-0.1-0.15-0.25-0.23-0.44-0.23c-0.21,0-0.49,0.08-0.83,0.25
		c-0.47,0.23-0.96,0.62-1.48,1.14c-0.52,0.53-1,1.16-1.44,1.91c-0.44,0.75-0.77,1.45-0.99,2.11
		C434.83,120.53,434.58,121.58,434.22,123.24z"/>
	<path fill="#FDFEFF" d="M444.11,131.82l-0.26-0.19c0.75-2.79,1.24-4.66,1.47-5.62c0.49-2.04,0.98-4.28,1.5-6.71
		c0.28-1.36,0.46-2.35,0.54-2.96c0.03-0.24,0.04-0.45,0.04-0.62c0-0.26-0.03-0.42-0.08-0.49c-0.05-0.07-0.12-0.1-0.23-0.1
		c-0.15,0-0.36,0.06-0.62,0.19c-0.44,0.23-0.89,0.52-1.37,0.87l-0.34-0.64c0.99-0.78,1.74-1.34,2.25-1.68
		c0.79-0.54,1.43-0.9,1.91-1.09c0.31-0.13,0.57-0.19,0.77-0.19c0.24,0,0.43,0.07,0.56,0.21s0.2,0.35,0.2,0.63
		c0,0.22-0.04,0.54-0.13,0.95c-0.1,0.54-0.39,1.75-0.87,3.63c0.8-1.23,1.48-2.14,2.02-2.73c0.42-0.44,0.96-0.9,1.61-1.38
		c0.65-0.47,1.22-0.8,1.7-0.99s0.94-0.28,1.38-0.28c0.27,0,0.49,0.07,0.67,0.21c0.18,0.14,0.35,0.43,0.5,0.87
		c0.21,0.59,0.31,1.25,0.31,1.96c0,1.05-0.22,2.21-0.65,3.5s-0.86,2.19-1.27,2.71c-0.41,0.52-1.04,1.07-1.9,1.65
		c-0.85,0.58-1.57,1-2.14,1.26c-0.57,0.26-1.24,0.39-2.01,0.39c-0.49,0-0.98-0.05-1.46-0.16c-0.51,2.04-0.88,3.7-1.12,4.96
		c-0.06,0.32-0.1,0.75-0.13,1.31c-0.31,0.03-0.68,0.09-1.12,0.16C444.92,131.62,444.33,131.74,444.11,131.82z M448.53,123.24
		c0.83,0.44,1.64,0.67,2.42,0.67c0.47,0,0.88-0.13,1.22-0.38c0.35-0.25,0.68-0.71,1.01-1.38c0.33-0.67,0.68-1.7,1.05-3.1
		c0.29-1.07,0.43-2.04,0.43-2.91c0-0.62-0.07-1.03-0.2-1.23c-0.1-0.15-0.25-0.23-0.44-0.23c-0.21,0-0.49,0.08-0.83,0.25
		c-0.47,0.23-0.96,0.62-1.48,1.14c-0.52,0.53-1,1.16-1.44,1.91c-0.44,0.75-0.77,1.45-0.99,2.11
		C449.14,120.53,448.89,121.58,448.53,123.24z"/>
	<path fill="#FDFEFF" d="M459.56,116.43l-0.31-0.67l1.72-1.27c0.88-0.62,1.47-1.01,1.77-1.18c0.49-0.27,0.92-0.46,1.29-0.58
		c0.23-0.07,0.44-0.1,0.62-0.1c0.2,0,0.38,0.08,0.53,0.25c0.16,0.17,0.23,0.4,0.23,0.69c0,0.32-0.03,0.65-0.1,0.99
		c-0.11,0.54-0.41,1.7-0.9,3.5c-0.49,1.8-0.8,2.98-0.92,3.54s-0.18,0.92-0.18,1.1c0,0.13,0.04,0.24,0.11,0.31
		c0.07,0.08,0.15,0.11,0.23,0.11c0.1,0,0.26-0.06,0.48-0.18c0.49-0.26,1.05-0.6,1.66-1.02l0.34,0.67c-0.66,0.47-1.41,0.97-2.25,1.51
		c-0.84,0.54-1.45,0.88-1.85,1.02c-0.25,0.09-0.49,0.14-0.73,0.14c-0.29,0-0.52-0.11-0.7-0.32c-0.18-0.21-0.28-0.54-0.28-0.99
		c0-0.35,0.04-0.72,0.11-1.09c0.09-0.5,0.31-1.4,0.65-2.69c0.7-2.66,1.06-4.23,1.06-4.7c0-0.11-0.03-0.19-0.08-0.25
		c-0.05-0.06-0.12-0.09-0.21-0.09C461.52,115.16,460.76,115.58,459.56,116.43z M463.44,108.84c0-0.55,0.17-1,0.51-1.35
		c0.34-0.35,0.75-0.52,1.25-0.52c0.42,0,0.75,0.13,1.01,0.38c0.26,0.26,0.38,0.59,0.38,1.01c0,0.59-0.16,1.07-0.49,1.44
		c-0.33,0.36-0.74,0.55-1.24,0.55c-0.44,0-0.79-0.13-1.04-0.39C463.57,109.7,463.44,109.33,463.44,108.84z"/>
	<path fill="#FDFEFF" d="M468.19,125.2l-0.33-0.3c0.21-0.54,0.41-1.13,0.59-1.77c0.39-1.39,0.7-2.53,0.91-3.43
		c0.21-0.9,0.4-1.88,0.56-2.94c0.08-0.56,0.13-0.95,0.13-1.16c0-0.14-0.03-0.25-0.09-0.31s-0.13-0.1-0.21-0.1
		c-0.29,0-0.91,0.36-1.87,1.09l-0.34-0.68c1.62-1.31,2.81-2.16,3.54-2.56c0.49-0.27,0.9-0.4,1.23-0.4c0.23,0,0.41,0.06,0.53,0.18
		c0.12,0.12,0.18,0.33,0.18,0.62c0,0.36-0.05,0.79-0.15,1.28c-0.15,0.79-0.49,2.18-1.02,4.18c0.79-1.46,1.79-2.77,3.02-3.93
		c0.9-0.85,1.76-1.48,2.59-1.9c0.55-0.28,1.04-0.43,1.46-0.43c0.35,0,0.62,0.1,0.8,0.3c0.18,0.2,0.28,0.49,0.28,0.88
		c0,0.3-0.05,0.7-0.15,1.19c-0.17,0.78-0.53,2.16-1.08,4.15c-0.28,1-0.48,1.85-0.6,2.56c-0.08,0.48-0.12,0.8-0.12,0.96
		s0.03,0.28,0.09,0.36c0.05,0.06,0.12,0.09,0.21,0.09c0.15,0,0.36-0.08,0.64-0.23c0.44-0.23,0.87-0.52,1.29-0.87l0.31,0.7
		c-1.38,1.06-2.49,1.78-3.32,2.19c-0.49,0.23-0.96,0.35-1.38,0.35c-0.32,0-0.54-0.12-0.68-0.36s-0.2-0.53-0.2-0.89
		c0-0.66,0.31-2.07,0.92-4.21c0.61-2.15,0.92-3.53,0.92-4.15c0-0.16-0.04-0.28-0.13-0.37s-0.2-0.13-0.34-0.13
		c-0.18,0-0.39,0.07-0.63,0.2c-0.51,0.29-1.11,0.85-1.78,1.68c-0.68,0.83-1.22,1.68-1.61,2.56c-0.4,0.88-0.7,1.71-0.9,2.49
		c-0.29,1.13-0.47,2.01-0.54,2.63C469.83,124.82,468.93,124.97,468.19,125.2z"/>
	<path fill="#FDFEFF" d="M491.12,121.87l0.28,0.69c-1.19,0.8-1.99,1.31-2.4,1.55c-0.77,0.43-1.45,0.73-2.03,0.91
		c-0.58,0.18-1.11,0.27-1.58,0.27c-0.61,0-1.17-0.12-1.69-0.37c-0.51-0.25-0.9-0.6-1.15-1.07c-0.25-0.46-0.38-0.99-0.38-1.59
		c0-1.16,0.23-2.53,0.7-4.12c0.23-0.79,0.5-1.43,0.8-1.92c0.3-0.49,0.72-0.97,1.27-1.42c0.88-0.72,1.89-1.31,3.03-1.76
		c0.64-0.24,1.22-0.36,1.76-0.36c0.78,0,1.38,0.19,1.82,0.58c0.43,0.39,0.65,0.91,0.65,1.55c0,0.8-0.24,1.53-0.73,2.22
		c-0.49,0.68-1.33,1.27-2.53,1.76c-1.2,0.49-2.44,0.84-3.7,1.04c-0.09,0.63-0.14,1.18-0.14,1.65c0,0.8,0.19,1.34,0.57,1.65
		c0.38,0.3,0.82,0.45,1.31,0.45c0.51,0,1.14-0.15,1.88-0.45C489.6,122.82,490.35,122.41,491.12,121.87z M485.34,119.13
		c0.8-0.18,1.36-0.35,1.7-0.5c0.65-0.28,1.15-0.58,1.48-0.89c0.33-0.31,0.63-0.72,0.87-1.23c0.25-0.51,0.37-0.96,0.37-1.36
		c0-0.39-0.11-0.7-0.34-0.92c-0.23-0.22-0.52-0.33-0.88-0.33c-0.42,0-0.83,0.15-1.24,0.45c-0.41,0.3-0.78,0.88-1.11,1.75
		C485.93,116.75,485.65,117.77,485.34,119.13z"/>
	<path fill="#FDFEFF" d="M493.99,121.1h0.78l0.04,1.21c0.36,0.42,0.83,0.77,1.41,1.05c0.58,0.28,1.18,0.42,1.8,0.42
		c0.54,0,0.98-0.08,1.33-0.25c0.35-0.16,0.6-0.4,0.77-0.72c0.16-0.31,0.25-0.63,0.25-0.94c0-0.31-0.08-0.59-0.23-0.85
		c-0.15-0.26-0.35-0.45-0.58-0.57c-0.24-0.12-0.69-0.25-1.36-0.37c-1.17-0.23-1.95-0.45-2.34-0.68c-0.39-0.23-0.7-0.56-0.92-0.98
		s-0.34-0.88-0.34-1.36c0-0.46,0.1-0.92,0.29-1.37c0.15-0.33,0.36-0.64,0.63-0.9c0.27-0.27,0.76-0.62,1.46-1.06
		c0.71-0.44,1.26-0.73,1.67-0.87c0.41-0.14,0.89-0.21,1.45-0.21c0.55,0,1.09,0.06,1.61,0.19s1.04,0.33,1.54,0.6
		c-0.17,0.76-0.32,1.76-0.46,3h-0.75l-0.15-1.24c-0.4-0.38-0.86-0.66-1.37-0.85c-0.51-0.19-1.01-0.29-1.5-0.29
		c-0.38,0-0.73,0.08-1.06,0.24c-0.33,0.16-0.58,0.38-0.75,0.66c-0.17,0.28-0.25,0.58-0.25,0.91c0,0.46,0.16,0.84,0.48,1.13
		c0.32,0.29,1.05,0.54,2.19,0.74c0.74,0.13,1.2,0.23,1.39,0.3c0.37,0.12,0.69,0.29,0.97,0.53c0.28,0.23,0.5,0.53,0.67,0.9
		c0.17,0.36,0.25,0.76,0.25,1.17c0,0.61-0.13,1.13-0.4,1.55c-0.27,0.42-0.72,0.88-1.34,1.38c-0.63,0.5-1.19,0.88-1.68,1.12
		c-0.7,0.33-1.55,0.5-2.56,0.5c-0.59,0-1.12-0.05-1.61-0.14c-0.35-0.07-0.96-0.26-1.83-0.58c0.1-0.34,0.2-0.83,0.29-1.47
		C493.9,122.08,493.98,121.46,493.99,121.1z"/>
</g>
</svg>
